<svg xmlns="http://www.w3.org/2000/svg" xmlns:xlink="http://www.w3.org/1999/xlink" width="500" zoomAndPan="magnify" viewBox="0 0 375 374.999991" height="500" preserveAspectRatio="xMidYMid meet" version="1.0"><defs><clipPath id="f3bab54afd"><path d="M 23 18.75 L 352.21875 18.75 L 352.21875 352 L 23 352 Z M 23 18.75 " clip-rule="nonzero"/></clipPath></defs><g clip-path="url(#f3bab54afd)"><path fill="#278d46" d="M 352.207031 183.304688 C 352.207031 274.152344 278.515625 347.800781 187.617188 347.800781 C 180.984375 347.8125 174.378906 347.421875 167.796875 346.628906 C 161.21875 345.839844 154.707031 344.652344 148.269531 343.074219 C 141.832031 341.492188 135.511719 339.527344 129.3125 337.179688 C 123.113281 334.832031 117.078125 332.121094 111.210938 329.039062 C 111.144531 329.070312 111.082031 329.097656 111.015625 329.125 L 61.402344 349.730469 C 45.875 356.175781 30.21875 340.824219 36.371094 325.191406 L 54.257812 279.738281 C 49.203125 272.773438 44.722656 265.457031 40.820312 257.785156 C 36.914062 250.113281 33.636719 242.183594 30.988281 233.996094 C 28.335938 225.808594 26.339844 217.464844 25.003906 208.964844 C 23.667969 200.460938 23.007812 191.910156 23.023438 183.304688 C 23.023438 92.453125 96.714844 18.804688 187.617188 18.804688 C 278.515625 18.804688 352.207031 92.453125 352.207031 183.304688 Z M 352.207031 183.304688 " fill-opacity="1" fill-rule="nonzero"/></g><path fill="#ffffff" d="M 330.851562 183.304688 C 330.851562 185.644531 330.792969 187.988281 330.679688 190.328125 C 330.5625 192.667969 330.390625 195.003906 330.164062 197.335938 C 329.933594 199.664062 329.644531 201.992188 329.300781 204.308594 C 328.957031 206.625 328.558594 208.933594 328.097656 211.230469 C 327.640625 213.527344 327.128906 215.8125 326.558594 218.085938 C 325.988281 220.359375 325.363281 222.617188 324.683594 224.859375 C 324.003906 227.101562 323.269531 229.324219 322.480469 231.53125 C 321.6875 233.734375 320.84375 235.921875 319.949219 238.085938 C 319.050781 240.25 318.101562 242.390625 317.097656 244.507812 C 316.097656 246.628906 315.042969 248.71875 313.9375 250.785156 C 312.832031 252.851562 311.679688 254.890625 310.472656 256.898438 C 309.269531 258.910156 308.015625 260.886719 306.710938 262.835938 C 305.410156 264.785156 304.058594 266.699219 302.664062 268.582031 C 301.265625 270.460938 299.824219 272.308594 298.339844 274.121094 C 296.851562 275.929688 295.320312 277.703125 293.746094 279.441406 C 292.171875 281.175781 290.554688 282.871094 288.898438 284.527344 C 287.242188 286.183594 285.542969 287.800781 283.808594 289.375 C 282.070312 290.945312 280.296875 292.476562 278.484375 293.964844 C 276.671875 295.449219 274.824219 296.890625 272.941406 298.285156 C 271.058594 299.679688 269.140625 301.03125 267.191406 302.332031 C 265.246094 303.632812 263.265625 304.886719 261.253906 306.089844 C 259.242188 307.296875 257.203125 308.449219 255.136719 309.554688 C 253.070312 310.660156 250.976562 311.710938 248.855469 312.714844 C 246.738281 313.714844 244.59375 314.664062 242.429688 315.5625 C 240.265625 316.457031 238.078125 317.300781 235.871094 318.089844 C 233.664062 318.878906 231.4375 319.613281 229.195312 320.292969 C 226.953125 320.972656 224.691406 321.597656 222.417969 322.167969 C 220.144531 322.738281 217.859375 323.25 215.558594 323.707031 C 213.261719 324.164062 210.953125 324.566406 208.632812 324.910156 C 206.3125 325.253906 203.988281 325.539062 201.65625 325.769531 C 199.320312 326 196.984375 326.171875 194.644531 326.285156 C 192.300781 326.398438 189.960938 326.457031 187.617188 326.457031 C 185.269531 326.457031 182.929688 326.398438 180.585938 326.285156 C 178.246094 326.171875 175.910156 326 173.574219 325.769531 C 171.242188 325.539062 168.917969 325.253906 166.597656 324.910156 C 164.28125 324.566406 161.96875 324.164062 159.671875 323.707031 C 157.371094 323.25 155.085938 322.738281 152.8125 322.167969 C 150.539062 321.597656 148.277344 320.972656 146.035156 320.292969 C 143.792969 319.613281 141.566406 318.878906 139.359375 318.089844 C 137.152344 317.300781 134.964844 316.457031 132.800781 315.5625 C 130.636719 314.664062 128.492188 313.714844 126.375 312.714844 C 124.253906 311.710938 122.160156 310.660156 120.09375 309.554688 C 118.027344 308.449219 115.988281 307.296875 113.976562 306.089844 C 111.964844 304.886719 109.988281 303.632812 108.039062 302.332031 C 106.089844 301.03125 104.171875 299.679688 102.289062 298.285156 C 100.40625 296.890625 98.558594 295.449219 96.746094 293.964844 C 94.933594 292.476562 93.160156 290.945312 91.421875 289.375 C 89.6875 287.800781 87.988281 286.183594 86.332031 284.527344 C 84.675781 282.871094 83.058594 281.175781 81.484375 279.441406 C 79.910156 277.703125 78.378906 275.929688 76.890625 274.121094 C 75.40625 272.308594 73.964844 270.460938 72.566406 268.582031 C 71.171875 266.699219 69.820312 264.785156 68.519531 262.835938 C 67.214844 260.886719 65.960938 258.910156 64.757812 256.898438 C 63.550781 254.890625 62.398438 252.851562 61.292969 250.785156 C 60.1875 248.71875 59.132812 246.628906 58.132812 244.507812 C 57.128906 242.390625 56.179688 240.25 55.28125 238.085938 C 54.386719 235.921875 53.542969 233.734375 52.75 231.53125 C 51.960938 229.324219 51.226562 227.101562 50.546875 224.859375 C 49.867188 222.617188 49.242188 220.359375 48.671875 218.085938 C 48.101562 215.8125 47.589844 213.527344 47.132812 211.230469 C 46.671875 208.933594 46.273438 206.625 45.929688 204.308594 C 45.585938 201.992188 45.296875 199.664062 45.070312 197.335938 C 44.839844 195.003906 44.667969 192.667969 44.550781 190.328125 C 44.4375 187.988281 44.378906 185.644531 44.378906 183.304688 C 44.378906 180.960938 44.4375 178.617188 44.550781 176.277344 C 44.667969 173.9375 44.839844 171.601562 45.070312 169.269531 C 45.296875 166.941406 45.585938 164.613281 45.929688 162.296875 C 46.273438 159.980469 46.671875 157.671875 47.132812 155.375 C 47.589844 153.078125 48.101562 150.792969 48.671875 148.519531 C 49.242188 146.246094 49.867188 143.988281 50.546875 141.746094 C 51.226562 139.503906 51.960938 137.28125 52.75 135.074219 C 53.542969 132.871094 54.386719 130.683594 55.28125 128.519531 C 56.179688 126.355469 57.128906 124.214844 58.132812 122.097656 C 59.132812 119.976562 60.1875 117.886719 61.292969 115.820312 C 62.398438 113.753906 63.550781 111.714844 64.757812 109.707031 C 65.960938 107.695312 67.214844 105.71875 68.519531 103.769531 C 69.820312 101.820312 71.171875 99.90625 72.566406 98.027344 C 73.964844 96.144531 75.40625 94.296875 76.890625 92.484375 C 78.378906 90.675781 79.910156 88.902344 81.484375 87.164062 C 83.058594 85.429688 84.675781 83.734375 86.332031 82.078125 C 87.988281 80.421875 89.6875 78.804688 91.421875 77.230469 C 93.160156 75.660156 94.933594 74.128906 96.746094 72.640625 C 98.558594 71.15625 100.40625 69.714844 102.289062 68.320312 C 104.171875 66.925781 106.089844 65.574219 108.039062 64.273438 C 109.988281 62.972656 111.964844 61.71875 113.976562 60.515625 C 115.988281 59.308594 118.027344 58.15625 120.09375 57.050781 C 122.160156 55.945312 124.253906 54.894531 126.375 53.890625 C 128.492188 52.890625 130.636719 51.941406 132.800781 51.042969 C 134.964844 50.148438 137.152344 49.304688 139.359375 48.515625 C 141.566406 47.726562 143.792969 46.992188 146.035156 46.3125 C 148.277344 45.632812 150.539062 45.007812 152.8125 44.4375 C 155.085938 43.867188 157.371094 43.355469 159.671875 42.898438 C 161.96875 42.441406 164.28125 42.039062 166.597656 41.695312 C 168.917969 41.351562 171.242188 41.066406 173.574219 40.835938 C 175.910156 40.609375 178.246094 40.433594 180.585938 40.320312 C 182.929688 40.207031 185.269531 40.148438 187.617188 40.148438 C 189.960938 40.148438 192.300781 40.207031 194.644531 40.320312 C 196.984375 40.433594 199.320312 40.609375 201.65625 40.835938 C 203.988281 41.066406 206.3125 41.351562 208.632812 41.695312 C 210.953125 42.039062 213.261719 42.441406 215.558594 42.898438 C 217.859375 43.355469 220.144531 43.867188 222.417969 44.4375 C 224.691406 45.007812 226.953125 45.632812 229.195312 46.3125 C 231.4375 46.992188 233.664062 47.726562 235.871094 48.515625 C 238.078125 49.304688 240.265625 50.148438 242.429688 51.042969 C 244.59375 51.941406 246.738281 52.890625 248.855469 53.890625 C 250.976562 54.894531 253.070312 55.945312 255.136719 57.050781 C 257.203125 58.15625 259.242188 59.308594 261.253906 60.515625 C 263.265625 61.71875 265.246094 62.972656 267.191406 64.273438 C 269.140625 65.574219 271.058594 66.925781 272.941406 68.320312 C 274.824219 69.714844 276.671875 71.15625 278.484375 72.640625 C 280.296875 74.128906 282.070312 75.660156 283.808594 77.230469 C 285.542969 78.804688 287.242188 80.421875 288.898438 82.078125 C 290.554688 83.734375 292.171875 85.429688 293.746094 87.164062 C 295.320312 88.902344 296.851562 90.675781 298.339844 92.484375 C 299.824219 94.296875 301.265625 96.144531 302.664062 98.027344 C 304.058594 99.90625 305.410156 101.820312 306.710938 103.769531 C 308.015625 105.71875 309.269531 107.695312 310.472656 109.707031 C 311.679688 111.714844 312.832031 113.753906 313.9375 115.820312 C 315.042969 117.886719 316.097656 119.976562 317.097656 122.097656 C 318.101562 124.214844 319.050781 126.355469 319.949219 128.519531 C 320.84375 130.683594 321.6875 132.871094 322.480469 135.074219 C 323.269531 137.28125 324.003906 139.503906 324.683594 141.746094 C 325.363281 143.988281 325.988281 146.246094 326.558594 148.519531 C 327.128906 150.792969 327.640625 153.078125 328.097656 155.375 C 328.558594 157.671875 328.957031 159.980469 329.300781 162.296875 C 329.644531 164.613281 329.933594 166.941406 330.164062 169.269531 C 330.390625 171.601562 330.5625 173.9375 330.679688 176.277344 C 330.792969 178.617188 330.851562 180.960938 330.851562 183.304688 Z M 330.851562 183.304688 " fill-opacity="1" fill-rule="nonzero"/><path fill="#278d46" d="M 310.789062 183.304688 C 310.789062 185.316406 310.742188 187.332031 310.640625 189.34375 C 310.542969 191.355469 310.394531 193.363281 310.195312 195.367188 C 310 197.375 309.753906 199.375 309.457031 201.367188 C 309.160156 203.359375 308.816406 205.34375 308.421875 207.320312 C 308.03125 209.296875 307.589844 211.261719 307.097656 213.214844 C 306.609375 215.167969 306.070312 217.109375 305.484375 219.039062 C 304.902344 220.964844 304.269531 222.878906 303.589844 224.777344 C 302.910156 226.671875 302.183594 228.550781 301.414062 230.414062 C 300.640625 232.273438 299.824219 234.117188 298.964844 235.9375 C 298.101562 237.757812 297.195312 239.558594 296.246094 241.332031 C 295.296875 243.109375 294.300781 244.863281 293.265625 246.589844 C 292.230469 248.320312 291.152344 250.019531 290.03125 251.695312 C 288.910156 253.371094 287.75 255.019531 286.550781 256.636719 C 285.347656 258.253906 284.109375 259.84375 282.832031 261.398438 C 281.550781 262.957031 280.234375 264.480469 278.882812 265.976562 C 277.527344 267.46875 276.136719 268.925781 274.714844 270.351562 C 273.289062 271.777344 271.828125 273.164062 270.335938 274.515625 C 268.839844 275.871094 267.316406 277.1875 265.757812 278.464844 C 264.199219 279.742188 262.609375 280.980469 260.992188 282.179688 C 259.371094 283.382812 257.722656 284.542969 256.046875 285.660156 C 254.371094 286.78125 252.667969 287.855469 250.941406 288.894531 C 249.210938 289.929688 247.457031 290.921875 245.679688 291.871094 C 243.902344 292.820312 242.101562 293.726562 240.28125 294.589844 C 238.457031 295.449219 236.613281 296.265625 234.753906 297.035156 C 232.890625 297.808594 231.007812 298.53125 229.113281 299.210938 C 227.214844 299.890625 225.300781 300.523438 223.371094 301.105469 C 221.441406 301.691406 219.5 302.230469 217.542969 302.71875 C 215.589844 303.207031 213.621094 303.648438 211.644531 304.042969 C 209.667969 304.433594 207.683594 304.78125 205.6875 305.074219 C 203.695312 305.371094 201.695312 305.617188 199.6875 305.816406 C 197.683594 306.011719 195.671875 306.160156 193.660156 306.257812 C 191.644531 306.359375 189.632812 306.40625 187.617188 306.40625 C 185.597656 306.40625 183.585938 306.359375 181.570312 306.257812 C 179.558594 306.160156 177.546875 306.011719 175.542969 305.816406 C 173.535156 305.617188 171.535156 305.371094 169.542969 305.074219 C 167.546875 304.78125 165.5625 304.433594 163.585938 304.042969 C 161.609375 303.648438 159.640625 303.207031 157.6875 302.71875 C 155.730469 302.230469 153.789062 301.691406 151.859375 301.105469 C 149.929688 300.523438 148.015625 299.890625 146.117188 299.210938 C 144.222656 298.53125 142.339844 297.808594 140.476562 297.035156 C 138.617188 296.265625 136.773438 295.449219 134.953125 294.589844 C 133.128906 293.726562 131.328125 292.820312 129.550781 291.871094 C 127.773438 290.921875 126.019531 289.929688 124.289062 288.894531 C 122.5625 287.855469 120.859375 286.78125 119.183594 285.660156 C 117.507812 284.542969 115.859375 283.382812 114.238281 282.179688 C 112.621094 280.980469 111.03125 279.742188 109.472656 278.464844 C 107.914062 277.1875 106.390625 275.871094 104.894531 274.515625 C 103.402344 273.164062 101.941406 271.777344 100.515625 270.351562 C 99.09375 268.925781 97.703125 267.46875 96.347656 265.976562 C 94.996094 264.480469 93.679688 262.957031 92.398438 261.398438 C 91.121094 259.84375 89.882812 258.253906 88.679688 256.636719 C 87.480469 255.019531 86.320312 253.371094 85.199219 251.695312 C 84.078125 250.019531 83 248.320312 81.964844 246.589844 C 80.929688 244.863281 79.933594 243.109375 78.984375 241.332031 C 78.035156 239.558594 77.128906 237.757812 76.265625 235.9375 C 75.40625 234.117188 74.589844 232.273438 73.816406 230.414062 C 73.046875 228.550781 72.320312 226.671875 71.640625 224.777344 C 70.960938 222.878906 70.328125 220.964844 69.746094 219.039062 C 69.160156 217.109375 68.621094 215.167969 68.132812 213.214844 C 67.640625 211.261719 67.199219 209.296875 66.808594 207.320312 C 66.414062 205.34375 66.070312 203.359375 65.773438 201.367188 C 65.476562 199.375 65.230469 197.375 65.035156 195.367188 C 64.835938 193.363281 64.6875 191.355469 64.589844 189.34375 C 64.488281 187.332031 64.441406 185.316406 64.441406 183.304688 C 64.441406 181.289062 64.488281 179.273438 64.589844 177.261719 C 64.6875 175.25 64.835938 173.242188 65.035156 171.238281 C 65.230469 169.230469 65.476562 167.234375 65.773438 165.238281 C 66.070312 163.246094 66.414062 161.261719 66.808594 159.285156 C 67.199219 157.308594 67.640625 155.34375 68.132812 153.390625 C 68.621094 151.4375 69.160156 149.496094 69.746094 147.566406 C 70.328125 145.640625 70.960938 143.726562 71.640625 141.828125 C 72.320312 139.933594 73.046875 138.054688 73.816406 136.191406 C 74.589844 134.332031 75.40625 132.488281 76.265625 130.667969 C 77.128906 128.847656 78.035156 127.046875 78.984375 125.273438 C 79.933594 123.496094 80.929688 121.742188 81.964844 120.015625 C 83 118.285156 84.078125 116.585938 85.199219 114.910156 C 86.320312 113.234375 87.480469 111.585938 88.679688 109.96875 C 89.882812 108.351562 91.121094 106.761719 92.398438 105.207031 C 93.679688 103.648438 94.996094 102.125 96.347656 100.628906 C 97.703125 99.136719 99.09375 97.679688 100.515625 96.253906 C 101.941406 94.828125 103.402344 93.441406 104.894531 92.089844 C 106.390625 90.734375 107.914062 89.417969 109.472656 88.140625 C 111.03125 86.863281 112.621094 85.625 114.238281 84.425781 C 115.859375 83.222656 117.507812 82.0625 119.183594 80.945312 C 120.859375 79.824219 122.5625 78.75 124.289062 77.710938 C 126.019531 76.675781 127.773438 75.683594 129.550781 74.734375 C 131.328125 73.785156 133.128906 72.878906 134.953125 72.015625 C 136.773438 71.15625 138.617188 70.339844 140.476562 69.570312 C 142.339844 68.796875 144.222656 68.074219 146.117188 67.394531 C 148.015625 66.714844 149.929688 66.082031 151.859375 65.5 C 153.789062 64.914062 155.730469 64.375 157.6875 63.886719 C 159.640625 63.398438 161.609375 62.957031 163.585938 62.5625 C 165.5625 62.171875 167.546875 61.824219 169.542969 61.53125 C 171.535156 61.234375 173.535156 60.988281 175.542969 60.789062 C 177.546875 60.59375 179.558594 60.445312 181.570312 60.347656 C 183.585938 60.246094 185.597656 60.199219 187.617188 60.199219 C 189.632812 60.199219 191.644531 60.246094 193.660156 60.347656 C 195.671875 60.445312 197.683594 60.59375 199.6875 60.789062 C 201.695312 60.988281 203.695312 61.234375 205.6875 61.53125 C 207.683594 61.824219 209.667969 62.171875 211.644531 62.5625 C 213.621094 62.957031 215.589844 63.398438 217.542969 63.886719 C 219.5 64.375 221.441406 64.914062 223.371094 65.5 C 225.300781 66.082031 227.214844 66.714844 229.113281 67.394531 C 231.007812 68.074219 232.890625 68.796875 234.753906 69.570312 C 236.613281 70.339844 238.457031 71.15625 240.28125 72.015625 C 242.101562 72.878906 243.902344 73.785156 245.679688 74.734375 C 247.457031 75.683594 249.210938 76.675781 250.941406 77.710938 C 252.667969 78.75 254.371094 79.824219 256.046875 80.945312 C 257.722656 82.0625 259.371094 83.222656 260.992188 84.425781 C 262.609375 85.625 264.199219 86.863281 265.757812 88.140625 C 267.316406 89.417969 268.839844 90.734375 270.335938 92.089844 C 271.828125 93.441406 273.289062 94.828125 274.714844 96.253906 C 276.136719 97.679688 277.527344 99.136719 278.882812 100.628906 C 280.234375 102.125 281.550781 103.648438 282.832031 105.207031 C 284.109375 106.761719 285.347656 108.351562 286.550781 109.96875 C 287.75 111.585938 288.910156 113.234375 290.03125 114.910156 C 291.152344 116.585938 292.230469 118.285156 293.265625 120.015625 C 294.300781 121.742188 295.296875 123.496094 296.246094 125.273438 C 297.195312 127.046875 298.101562 128.847656 298.964844 130.667969 C 299.824219 132.488281 300.640625 134.332031 301.414062 136.191406 C 302.183594 138.054688 302.910156 139.933594 303.589844 141.828125 C 304.269531 143.726562 304.902344 145.640625 305.484375 147.566406 C 306.070312 149.496094 306.609375 151.4375 307.097656 153.390625 C 307.589844 155.34375 308.03125 157.308594 308.421875 159.285156 C 308.816406 161.261719 309.160156 163.246094 309.457031 165.238281 C 309.753906 167.234375 310 169.230469 310.195312 171.238281 C 310.394531 173.242188 310.542969 175.25 310.640625 177.261719 C 310.742188 179.273438 310.789062 181.289062 310.789062 183.304688 Z M 310.789062 183.304688 " fill-opacity="1" fill-rule="nonzero"/><path fill="#ffffff" d="M 171.800781 143.089844 L 167.003906 122.863281 C 166.867188 122.285156 166.703125 121.71875 166.507812 121.160156 C 166.308594 120.601562 166.085938 120.054688 165.832031 119.519531 C 165.578125 118.984375 165.296875 118.464844 164.988281 117.960938 C 164.679688 117.457031 164.34375 116.96875 163.984375 116.5 C 163.625 116.027344 163.242188 115.578125 162.832031 115.148438 C 162.425781 114.71875 161.996094 114.3125 161.546875 113.929688 C 161.097656 113.542969 160.628906 113.183594 160.140625 112.851562 C 159.652344 112.515625 159.144531 112.207031 158.625 111.925781 C 158.105469 111.644531 157.570312 111.390625 157.023438 111.164062 C 156.476562 110.9375 155.917969 110.742188 155.351562 110.574219 C 154.78125 110.410156 154.207031 110.273438 153.625 110.164062 C 153.042969 110.058594 152.457031 109.984375 151.863281 109.9375 C 151.273438 109.894531 150.683594 109.882812 150.089844 109.898438 C 149.5 109.917969 148.910156 109.964844 148.324219 110.046875 C 147.738281 110.125 147.15625 110.234375 146.582031 110.375 C 146.003906 110.515625 145.4375 110.6875 144.882812 110.886719 L 133.828125 114.867188 C 132.933594 115.1875 132.074219 115.582031 131.246094 116.050781 C 130.417969 116.519531 129.636719 117.050781 128.898438 117.652344 C 128.160156 118.25 127.480469 118.90625 126.855469 119.621094 C 126.226562 120.335938 125.667969 121.097656 125.167969 121.910156 C 124.671875 122.71875 124.246094 123.5625 123.890625 124.445312 C 123.539062 125.324219 123.261719 126.230469 123.058594 127.160156 C 122.855469 128.085938 122.734375 129.027344 122.691406 129.976562 C 122.648438 130.921875 122.6875 131.871094 122.804688 132.8125 C 126.65625 164.097656 144.390625 239.777344 225.945312 256.40625 C 226.75 256.570312 227.5625 256.675781 228.382812 256.71875 C 229.203125 256.765625 230.023438 256.75 230.839844 256.675781 C 231.660156 256.601562 232.46875 256.46875 233.265625 256.277344 C 234.066406 256.085938 234.847656 255.835938 235.609375 255.53125 C 236.371094 255.226562 237.109375 254.867188 237.816406 254.453125 C 238.527344 254.039062 239.203125 253.578125 239.847656 253.0625 C 240.488281 252.550781 241.089844 251.996094 241.652344 251.394531 C 242.210938 250.796875 242.726562 250.160156 243.195312 249.484375 L 249.539062 240.324219 C 249.851562 239.867188 250.144531 239.402344 250.414062 238.917969 C 250.679688 238.4375 250.925781 237.941406 251.144531 237.433594 C 251.363281 236.929688 251.558594 236.414062 251.726562 235.886719 C 251.898438 235.359375 252.039062 234.828125 252.15625 234.289062 C 252.273438 233.75 252.363281 233.207031 252.425781 232.65625 C 252.488281 232.109375 252.527344 231.558594 252.535156 231.007812 C 252.542969 230.453125 252.527344 229.902344 252.480469 229.351562 C 252.4375 228.804688 252.363281 228.257812 252.265625 227.714844 C 252.167969 227.171875 252.042969 226.632812 251.890625 226.101562 C 251.738281 225.570312 251.5625 225.050781 251.359375 224.535156 C 251.15625 224.023438 250.925781 223.519531 250.675781 223.027344 C 250.421875 222.539062 250.148438 222.0625 249.847656 221.597656 C 249.546875 221.132812 249.226562 220.683594 248.882812 220.253906 C 248.539062 219.820312 248.175781 219.40625 247.792969 219.007812 C 247.410156 218.613281 247.007812 218.234375 246.585938 217.878906 C 246.164062 217.519531 245.726562 217.183594 245.273438 216.871094 L 245.164062 216.796875 L 231.21875 207.308594 C 230.472656 206.796875 229.683594 206.351562 228.863281 205.96875 C 228.039062 205.582031 227.195312 205.269531 226.320312 205.023438 C 225.449219 204.773438 224.558594 204.601562 223.660156 204.496094 C 222.757812 204.390625 221.855469 204.363281 220.949219 204.402344 C 220.042969 204.445312 219.144531 204.558594 218.257812 204.746094 C 217.371094 204.933594 216.503906 205.191406 215.65625 205.515625 C 214.808594 205.84375 213.996094 206.234375 213.210938 206.691406 C 212.429688 207.152344 211.6875 207.667969 210.988281 208.246094 C 210.292969 208.820312 209.558594 209.335938 208.78125 209.792969 C 208.003906 210.25 207.195312 210.640625 206.355469 210.96875 C 205.511719 211.296875 204.652344 211.550781 203.769531 211.742188 C 202.890625 211.929688 201.996094 212.046875 201.097656 212.09375 C 200.195312 212.136719 199.296875 212.109375 198.402344 212.011719 C 197.503906 211.914062 196.621094 211.742188 195.753906 211.503906 C 194.886719 211.261719 194.039062 210.953125 193.222656 210.578125 C 192.402344 210.199219 191.617188 209.761719 190.867188 209.257812 C 182.386719 203.546875 170.90625 194.078125 163.449219 180.945312 C 163.03125 180.214844 162.671875 179.457031 162.367188 178.667969 C 162.0625 177.882812 161.816406 177.078125 161.632812 176.257812 C 161.449219 175.433594 161.328125 174.601562 161.269531 173.761719 C 161.207031 172.921875 161.210938 172.082031 161.277344 171.242188 C 161.34375 170.402344 161.472656 169.570312 161.664062 168.75 C 161.851562 167.929688 162.105469 167.125 162.414062 166.34375 C 162.726562 165.558594 163.09375 164.804688 163.515625 164.074219 C 163.9375 163.347656 164.414062 162.652344 164.941406 161.996094 L 168.53125 157.539062 C 169.335938 156.539062 170.015625 155.460938 170.574219 154.304688 C 171.132812 153.148438 171.554688 151.945312 171.839844 150.691406 C 172.121094 149.441406 172.261719 148.171875 172.253906 146.886719 C 172.246094 145.605469 172.09375 144.335938 171.800781 143.089844 Z M 171.800781 143.089844 " fill-opacity="1" fill-rule="nonzero"/></svg>