<svg xmlns="http://www.w3.org/2000/svg" xmlns:xlink="http://www.w3.org/1999/xlink" width="500" zoomAndPan="magnify" viewBox="0 0 375 374.999991" height="500" preserveAspectRatio="xMidYMid meet" version="1.0"><defs><clipPath id="30cd02860f"><path d="M 9.980469 9.980469 L 363.980469 9.980469 L 363.980469 363.980469 L 9.980469 363.980469 Z M 9.980469 9.980469 " clip-rule="nonzero"/></clipPath><clipPath id="5bffae2bc8"><path d="M 186.980469 9.980469 C 89.226562 9.980469 9.980469 89.226562 9.980469 186.980469 C 9.980469 284.734375 89.226562 363.980469 186.980469 363.980469 C 284.734375 363.980469 363.980469 284.734375 363.980469 186.980469 C 363.980469 89.226562 284.734375 9.980469 186.980469 9.980469 Z M 186.980469 9.980469 " clip-rule="nonzero"/></clipPath><clipPath id="82c03bfe41"><path d="M 84.085938 84.085938 L 290 84.085938 L 290 290.335938 L 84.085938 290.335938 Z M 84.085938 84.085938 " clip-rule="nonzero"/></clipPath></defs><g clip-path="url(#30cd02860f)"><g clip-path="url(#5bffae2bc8)"><path stroke-linecap="butt" transform="matrix(0.749702, 0, 0, 0.749702, 9.979121, 9.979117)" fill="none" stroke-linejoin="miter" d="M 236.095548 0.00180366 C 105.70523 0.00180366 0.00179765 105.705236 0.00179765 236.095554 C 0.00179765 366.485872 105.70523 472.189304 236.095548 472.189304 C 366.485866 472.189304 472.189298 366.485872 472.189298 236.095554 C 472.189298 105.705236 366.485866 0.00180366 236.095548 0.00180366 Z M 236.095548 0.00180366 " stroke="#ffffff" stroke-width="8" stroke-opacity="1" stroke-miterlimit="4"/></g></g><g clip-path="url(#82c03bfe41)"><path fill="#ffffff" d="M 187.617188 84.085938 C 159.253906 84.085938 155.847656 84.085938 145.070312 84.652344 C 134.292969 84.652344 126.347656 86.921875 120.109375 89.191406 C 113.300781 92.027344 107.628906 95.429688 101.953125 101.101562 C 96.28125 106.777344 92.878906 112.449219 90.039062 119.257812 C 87.203125 126.066406 85.503906 133.441406 85.503906 144.21875 C 84.367188 156.132812 84.367188 159.535156 84.367188 187.335938 C 84.367188 215.699219 84.367188 219.105469 84.933594 229.882812 C 84.933594 240.660156 87.203125 248.605469 89.472656 254.84375 C 92.308594 261.652344 95.714844 267.324219 101.386719 273 C 107.058594 278.671875 112.734375 282.074219 119.539062 284.910156 C 126.347656 287.75 133.722656 289.449219 144.503906 289.449219 C 155.28125 289.449219 159.253906 290.019531 187.050781 290.019531 C 214.847656 290.019531 218.820312 290.019531 229.597656 289.449219 C 240.378906 289.449219 248.320312 287.179688 254.5625 284.910156 C 261.367188 282.074219 267.042969 278.671875 272.714844 273 C 278.386719 267.324219 281.792969 261.652344 284.628906 254.84375 C 286.898438 248.035156 289.167969 240.660156 289.167969 229.882812 C 289.167969 219.105469 289.734375 215.132812 289.734375 187.335938 C 289.734375 158.96875 289.734375 155.566406 289.167969 144.785156 C 289.167969 134.007812 286.898438 126.066406 284.628906 119.824219 C 281.792969 113.015625 278.386719 107.34375 272.714844 101.671875 C 267.042969 95.996094 261.367188 92.59375 254.5625 89.757812 C 247.753906 86.921875 240.378906 85.21875 229.597656 85.21875 C 219.386719 84.085938 215.984375 84.085938 187.617188 84.085938 Z M 178.542969 102.804688 C 181.378906 102.804688 184.214844 102.804688 187.617188 102.804688 C 215.417969 102.804688 218.253906 102.804688 229.597656 103.371094 C 239.8125 103.371094 244.917969 105.640625 248.886719 106.777344 C 253.992188 108.476562 257.398438 110.746094 260.800781 114.71875 C 264.207031 118.121094 266.472656 121.527344 268.742188 126.632812 C 269.878906 130.035156 271.582031 135.710938 272.148438 145.921875 C 272.148438 156.699219 272.714844 160.105469 272.714844 187.902344 C 272.714844 215.699219 272.714844 218.535156 272.148438 229.882812 C 272.148438 240.09375 269.878906 245.199219 268.742188 249.171875 C 267.042969 254.277344 264.773438 257.679688 260.800781 261.085938 C 257.398438 264.488281 253.992188 266.757812 248.886719 269.027344 C 245.484375 270.730469 239.8125 271.863281 229.597656 272.429688 C 218.820312 272.429688 215.417969 273 187.617188 273 C 159.820312 273 156.984375 273 145.636719 272.429688 C 135.425781 272.429688 130.320312 270.160156 126.347656 269.027344 C 121.242188 267.324219 117.839844 265.054688 114.433594 261.085938 C 111.03125 257.679688 108.761719 254.277344 106.492188 249.171875 C 105.359375 245.765625 103.65625 240.09375 103.089844 229.882812 C 103.089844 219.105469 102.523438 215.699219 102.523438 187.902344 C 102.523438 160.105469 102.523438 157.265625 103.089844 145.921875 C 103.089844 135.710938 105.359375 130.605469 106.492188 126.632812 C 108.195312 121.527344 110.464844 118.121094 114.433594 114.71875 C 117.839844 111.316406 121.242188 109.046875 126.347656 106.777344 C 129.753906 105.074219 135.425781 103.941406 145.636719 103.371094 C 155.28125 103.371094 158.683594 103.371094 177.972656 102.804688 Z M 187.617188 134.574219 C 158.117188 134.574219 134.292969 158.402344 134.292969 187.902344 C 134.292969 217.402344 158.117188 241.230469 187.617188 241.230469 C 217.117188 241.230469 240.945312 217.402344 240.945312 187.902344 C 240.945312 158.402344 217.117188 134.574219 187.617188 134.574219 Z M 187.617188 153.296875 C 206.90625 153.296875 222.222656 168.613281 222.222656 187.902344 C 222.222656 207.191406 206.90625 222.507812 187.617188 222.507812 C 168.328125 222.507812 153.011719 207.191406 153.011719 187.902344 C 153.011719 168.613281 168.328125 153.296875 187.617188 153.296875 Z M 187.617188 153.296875 " fill-opacity="1" fill-rule="nonzero"/></g></svg>