<svg xmlns="http://www.w3.org/2000/svg" xmlns:xlink="http://www.w3.org/1999/xlink" width="500" zoomAndPan="magnify" viewBox="0 0 375 374.999991" height="500" preserveAspectRatio="xMidYMid meet" version="1.0"><defs><g/><clipPath id="bb05f14ca4"><path d="M 89.003906 70.683594 L 284.753906 70.683594 L 284.753906 210.933594 L 89.003906 210.933594 Z M 89.003906 70.683594 " clip-rule="nonzero"/></clipPath><clipPath id="79b4a17bfc"><path d="M 89.003906 267.332031 L 284.753906 267.332031 L 284.753906 323.234375 L 89.003906 323.234375 Z M 89.003906 267.332031 " clip-rule="nonzero"/></clipPath></defs><g fill="#ffffff" fill-opacity="1"><g transform="translate(28.664303, 268.408633)"><g><path d="M 1.484375 0 C 0.910156 0 0.457031 -0.207031 0.117188 -0.625 C -0.222656 -1.042969 -0.339844 -1.535156 -0.234375 -2.109375 L 10.546875 -52.578125 C 10.652344 -53.152344 10.949219 -53.648438 11.445312 -54.0625 C 11.941406 -54.480469 12.472656 -54.6875 13.046875 -54.6875 L 37.421875 -54.6875 C 43.777344 -54.6875 48.722656 -53.59375 52.265625 -51.40625 C 55.808594 -49.21875 57.578125 -46.015625 57.578125 -41.796875 C 57.578125 -40.859375 57.449219 -39.6875 57.1875 -38.28125 C 56.71875 -36.042969 55.640625 -34.050781 53.945312 -32.304688 C 52.253906 -30.558594 50.546875 -29.296875 48.828125 -28.515625 C 50.390625 -27.785156 51.652344 -26.628906 52.617188 -25.039062 C 53.582031 -23.449219 54.0625 -21.667969 54.0625 -19.6875 C 54.0625 -18.90625 53.984375 -18.074219 53.828125 -17.1875 C 52.578125 -11.300781 50.011719 -6.964844 46.132812 -4.179688 C 42.253906 -1.394531 36.796875 0 29.765625 0 Z M 32.65625 -34.140625 C 33.699219 -34.140625 34.570312 -34.492188 35.273438 -35.195312 C 35.976562 -35.898438 36.433594 -36.71875 36.640625 -37.65625 C 36.691406 -37.863281 36.71875 -38.175781 36.71875 -38.59375 C 36.71875 -39.324219 36.523438 -39.949219 36.132812 -40.46875 C 35.742188 -40.988281 35.105469 -41.25 34.21875 -41.25 L 27.65625 -41.25 L 26.09375 -34.140625 Z M 28.984375 -13.4375 C 30.183594 -13.4375 31.171875 -13.828125 31.953125 -14.609375 C 32.734375 -15.390625 33.203125 -16.277344 33.359375 -17.265625 C 33.464844 -17.683594 33.515625 -18.019531 33.515625 -18.28125 C 33.515625 -19.0625 33.269531 -19.726562 32.773438 -20.273438 C 32.277344 -20.820312 31.5625 -21.09375 30.625 -21.09375 L 23.359375 -21.09375 L 21.71875 -13.4375 Z M 28.984375 -13.4375 "/></g></g></g><g fill="#ffffff" fill-opacity="1"><g transform="translate(81.631433, 268.408633)"><g><path d="M 25.546875 0.78125 C 21.378906 0.78125 17.566406 0.167969 14.101562 -1.054688 C 10.636719 -2.277344 7.863281 -4.152344 5.78125 -6.679688 C 3.699219 -9.207031 2.65625 -12.316406 2.65625 -16.015625 C 2.65625 -17.578125 2.839844 -19.113281 3.203125 -20.625 L 10 -52.578125 C 10.105469 -53.152344 10.402344 -53.648438 10.898438 -54.0625 C 11.394531 -54.480469 11.925781 -54.6875 12.5 -54.6875 L 27.8125 -54.6875 C 28.386719 -54.6875 28.839844 -54.480469 29.179688 -54.0625 C 29.519531 -53.648438 29.636719 -53.152344 29.53125 -52.578125 L 22.734375 -20.9375 C 22.578125 -20.261719 22.5 -19.636719 22.5 -19.0625 C 22.5 -16.300781 24.089844 -14.921875 27.265625 -14.921875 C 29.191406 -14.921875 30.742188 -15.429688 31.914062 -16.445312 C 33.085938 -17.460938 33.878906 -18.957031 34.296875 -20.9375 L 41.09375 -52.578125 C 41.199219 -53.152344 41.496094 -53.648438 41.992188 -54.0625 C 42.488281 -54.480469 43.019531 -54.6875 43.59375 -54.6875 L 58.90625 -54.6875 C 59.480469 -54.6875 59.9375 -54.480469 60.273438 -54.0625 C 60.613281 -53.648438 60.730469 -53.152344 60.625 -52.578125 L 53.828125 -20.625 C 52.214844 -13.230469 49.140625 -7.8125 44.609375 -4.375 C 40.078125 -0.9375 33.722656 0.78125 25.546875 0.78125 Z M 25.546875 0.78125 "/></g></g></g><g fill="#ffffff" fill-opacity="1"><g transform="translate(135.536045, 268.408633)"><g><path d="M 2.578125 0 C 2.003906 0 1.5625 -0.207031 1.25 -0.625 C 0.9375 -1.042969 0.832031 -1.535156 0.9375 -2.109375 L 11.640625 -52.578125 C 11.746094 -53.152344 12.058594 -53.648438 12.578125 -54.0625 C 13.097656 -54.480469 13.644531 -54.6875 14.21875 -54.6875 L 37.34375 -54.6875 C 43.855469 -54.6875 48.867188 -53.398438 52.382812 -50.820312 C 55.898438 -48.242188 57.65625 -44.636719 57.65625 -40 C 57.65625 -38.644531 57.5 -37.214844 57.1875 -35.703125 C 56.460938 -32.316406 55.066406 -29.335938 53.007812 -26.757812 C 50.949219 -24.179688 48.464844 -22.058594 45.546875 -20.390625 L 51.328125 -2.578125 C 51.433594 -2.214844 51.457031 -1.925781 51.40625 -1.71875 C 51.300781 -1.25 51.042969 -0.847656 50.625 -0.507812 C 50.207031 -0.167969 49.765625 0 49.296875 0 L 33.28125 0 C 32.34375 0 31.652344 -0.222656 31.210938 -0.664062 C 30.769531 -1.105469 30.496094 -1.589844 30.390625 -2.109375 L 26.875 -17.03125 L 23.671875 -17.03125 L 20.46875 -2.109375 C 20.363281 -1.535156 20.050781 -1.042969 19.53125 -0.625 C 19.011719 -0.207031 18.464844 0 17.890625 0 Z M 32.5 -31.875 C 33.855469 -31.875 34.949219 -32.394531 35.78125 -33.4375 C 36.613281 -34.480469 37.03125 -35.675781 37.03125 -37.03125 C 37.03125 -37.96875 36.808594 -38.722656 36.367188 -39.296875 C 35.925781 -39.871094 35.207031 -40.15625 34.21875 -40.15625 L 28.515625 -40.15625 L 26.796875 -31.875 Z M 32.5 -31.875 "/></g></g></g><g fill="#ffffff" fill-opacity="1"><g transform="translate(187.643826, 268.408633)"><g><path d="M 25.234375 0.78125 C 18.152344 0.78125 12.683594 -0.613281 8.828125 -3.398438 C 4.972656 -6.183594 3.046875 -10.363281 3.046875 -15.9375 C 3.046875 -17.394531 3.203125 -18.984375 3.515625 -20.703125 C 4.191406 -24.816406 5.183594 -29.503906 6.484375 -34.765625 C 8.152344 -41.535156 11.707031 -46.679688 17.148438 -50.195312 C 22.589844 -53.710938 29.269531 -55.46875 37.1875 -55.46875 C 42.082031 -55.46875 46.289062 -54.804688 49.804688 -53.476562 C 53.320312 -52.148438 56.003906 -50.351562 57.851562 -48.085938 C 59.703125 -45.820312 60.625 -43.28125 60.625 -40.46875 C 60.625 -39.636719 60.546875 -38.828125 60.390625 -38.046875 C 60.289062 -37.578125 60.027344 -37.175781 59.609375 -36.835938 C 59.195312 -36.496094 58.75 -36.328125 58.28125 -36.328125 L 41.015625 -36.328125 C 40.027344 -36.328125 39.324219 -36.613281 38.90625 -37.1875 C 38.855469 -37.238281 38.699219 -37.550781 38.4375 -38.125 C 38.175781 -38.699219 37.65625 -39.191406 36.875 -39.609375 C 36.09375 -40.027344 35.128906 -40.234375 33.984375 -40.234375 C 30.078125 -40.234375 27.65625 -38.28125 26.71875 -34.375 C 25.675781 -30.3125 24.738281 -25.886719 23.90625 -21.09375 C 23.75 -20.417969 23.671875 -19.738281 23.671875 -19.0625 C 23.671875 -15.988281 25.390625 -14.453125 28.828125 -14.453125 C 30.910156 -14.453125 32.628906 -14.894531 33.984375 -15.78125 C 35.339844 -16.667969 36.222656 -18.074219 36.640625 -20 L 36.640625 -20.078125 L 32.96875 -20.078125 C 32.394531 -20.078125 31.941406 -20.285156 31.601562 -20.703125 C 31.261719 -21.121094 31.171875 -21.613281 31.328125 -22.1875 L 33.125 -30.859375 C 33.230469 -31.433594 33.542969 -31.925781 34.0625 -32.34375 C 34.582031 -32.761719 35.128906 -32.96875 35.703125 -32.96875 L 57.1875 -32.96875 C 57.761719 -32.96875 58.203125 -32.761719 58.515625 -32.34375 C 58.828125 -31.925781 58.933594 -31.433594 58.828125 -30.859375 L 56.71875 -20.703125 C 55.210938 -13.828125 51.613281 -8.527344 45.9375 -4.804688 C 40.261719 -1.082031 33.359375 0.78125 25.234375 0.78125 Z M 25.234375 0.78125 "/></g></g></g><g fill="#ffffff" fill-opacity="1"><g transform="translate(242.173418, 268.408633)"><g><path d="M 1.484375 0 C 0.910156 0 0.457031 -0.207031 0.117188 -0.625 C -0.222656 -1.042969 -0.339844 -1.535156 -0.234375 -2.109375 L 10.546875 -52.578125 C 10.652344 -53.152344 10.949219 -53.648438 11.445312 -54.0625 C 11.941406 -54.480469 12.472656 -54.6875 13.046875 -54.6875 L 53.125 -54.6875 C 53.699219 -54.6875 54.15625 -54.480469 54.492188 -54.0625 C 54.832031 -53.648438 54.949219 -53.152344 54.84375 -52.578125 L 52.5 -41.5625 C 52.34375 -40.988281 52.019531 -40.496094 51.523438 -40.078125 C 51.027344 -39.660156 50.496094 -39.453125 49.921875 -39.453125 L 26.484375 -39.453125 L 25.390625 -34.53125 L 47.109375 -34.53125 C 47.683594 -34.53125 48.136719 -34.324219 48.476562 -33.90625 C 48.816406 -33.488281 48.933594 -32.996094 48.828125 -32.421875 L 46.640625 -22.265625 C 46.535156 -21.691406 46.222656 -21.199219 45.703125 -20.78125 C 45.183594 -20.363281 44.636719 -20.15625 44.0625 -20.15625 L 22.34375 -20.15625 L 21.328125 -15.234375 L 45.390625 -15.234375 C 45.964844 -15.234375 46.40625 -15.027344 46.71875 -14.609375 C 47.03125 -14.191406 47.136719 -13.699219 47.03125 -13.125 L 44.6875 -2.109375 C 44.582031 -1.535156 44.285156 -1.042969 43.789062 -0.625 C 43.292969 -0.207031 42.761719 0 42.1875 0 Z M 1.484375 0 "/></g></g></g><g fill="#ffffff" fill-opacity="1"><g transform="translate(289.906275, 268.408633)"><g><path d="M 2.578125 0 C 2.003906 0 1.5625 -0.207031 1.25 -0.625 C 0.9375 -1.042969 0.832031 -1.535156 0.9375 -2.109375 L 11.640625 -52.578125 C 11.746094 -53.152344 12.058594 -53.648438 12.578125 -54.0625 C 13.097656 -54.480469 13.644531 -54.6875 14.21875 -54.6875 L 37.34375 -54.6875 C 43.855469 -54.6875 48.867188 -53.398438 52.382812 -50.820312 C 55.898438 -48.242188 57.65625 -44.636719 57.65625 -40 C 57.65625 -38.644531 57.5 -37.214844 57.1875 -35.703125 C 56.460938 -32.316406 55.066406 -29.335938 53.007812 -26.757812 C 50.949219 -24.179688 48.464844 -22.058594 45.546875 -20.390625 L 51.328125 -2.578125 C 51.433594 -2.214844 51.457031 -1.925781 51.40625 -1.71875 C 51.300781 -1.25 51.042969 -0.847656 50.625 -0.507812 C 50.207031 -0.167969 49.765625 0 49.296875 0 L 33.28125 0 C 32.34375 0 31.652344 -0.222656 31.210938 -0.664062 C 30.769531 -1.105469 30.496094 -1.589844 30.390625 -2.109375 L 26.875 -17.03125 L 23.671875 -17.03125 L 20.46875 -2.109375 C 20.363281 -1.535156 20.050781 -1.042969 19.53125 -0.625 C 19.011719 -0.207031 18.464844 0 17.890625 0 Z M 32.5 -31.875 C 33.855469 -31.875 34.949219 -32.394531 35.78125 -33.4375 C 36.613281 -34.480469 37.03125 -35.675781 37.03125 -37.03125 C 37.03125 -37.96875 36.808594 -38.722656 36.367188 -39.296875 C 35.925781 -39.871094 35.207031 -40.15625 34.21875 -40.15625 L 28.515625 -40.15625 L 26.796875 -31.875 Z M 32.5 -31.875 "/></g></g></g><g clip-path="url(#bb05f14ca4)"><path fill="#ffffff" d="M 137.898438 113.417969 L 137.898438 70.738281 L 165.257812 98.097656 C 167.816406 100.65625 172.121094 99.953125 173.742188 96.71875 L 186.71875 70.738281 L 199.707031 96.71875 C 201.316406 99.953125 205.632812 100.648438 208.191406 98.097656 L 235.550781 70.738281 L 235.550781 113.417969 C 235.550781 116.8125 232.800781 119.558594 229.410156 119.558594 L 144.039062 119.558594 C 140.644531 119.570312 137.898438 116.8125 137.898438 113.417969 Z M 89.070312 197.472656 C 89.070312 161.1875 118.492188 131.765625 154.777344 131.765625 L 218.664062 131.765625 C 254.949219 131.765625 284.371094 161.1875 284.371094 197.472656 C 284.371094 201.636719 280.996094 205.003906 276.839844 205.003906 L 96.597656 205.003906 C 92.445312 205.011719 89.070312 201.636719 89.070312 197.472656 Z M 209.070312 191.078125 C 209.070312 189.785156 205.855469 188.734375 201.898438 188.734375 C 197.933594 188.734375 194.726562 189.785156 194.726562 191.078125 C 194.726562 192.371094 197.941406 193.421875 201.898438 193.421875 C 205.867188 193.421875 209.070312 192.371094 209.070312 191.078125 Z M 235.550781 175.421875 C 235.550781 176.714844 238.765625 177.765625 242.722656 177.765625 C 246.6875 177.765625 249.894531 176.714844 249.894531 175.421875 C 249.894531 174.128906 246.6875 173.078125 242.722656 173.078125 C 238.757812 173.078125 235.550781 174.128906 235.550781 175.421875 Z M 214.660156 154.269531 C 214.660156 155.5625 217.875 156.613281 221.832031 156.613281 C 225.796875 156.613281 229.003906 155.5625 229.003906 154.269531 C 229.003906 152.976562 225.789062 151.925781 221.832031 151.925781 C 217.875 151.914062 214.660156 152.964844 214.660156 154.269531 Z M 201.898438 168.390625 C 197.933594 168.390625 194.726562 169.4375 194.726562 170.734375 C 194.726562 172.027344 197.941406 173.078125 201.898438 173.078125 C 205.867188 173.078125 209.070312 172.027344 209.070312 170.734375 C 209.070312 169.4375 205.867188 168.390625 201.898438 168.390625 Z M 182.78125 149.570312 C 182.78125 150.867188 185.988281 151.914062 189.953125 151.914062 C 193.921875 151.914062 197.128906 150.867188 197.128906 149.570312 C 197.128906 148.277344 193.910156 147.226562 189.953125 147.226562 C 185.996094 147.226562 182.78125 148.277344 182.78125 149.570312 Z M 166.589844 166.046875 C 162.625 166.046875 159.417969 167.09375 159.417969 168.390625 C 159.417969 169.683594 162.632812 170.734375 166.589844 170.734375 C 170.554688 170.734375 173.761719 169.683594 173.761719 168.390625 C 173.761719 167.09375 170.554688 166.046875 166.589844 166.046875 Z M 148.476562 154.269531 C 148.476562 155.5625 151.691406 156.613281 155.648438 156.613281 C 159.613281 156.613281 162.820312 155.5625 162.820312 154.269531 C 162.820312 152.976562 159.605469 151.925781 155.648438 151.925781 C 151.691406 151.914062 148.476562 152.964844 148.476562 154.269531 Z M 145.070312 188.734375 C 145.070312 190.027344 148.289062 191.078125 152.246094 191.078125 C 156.210938 191.078125 159.417969 190.027344 159.417969 188.734375 C 159.417969 187.441406 156.210938 186.390625 152.246094 186.390625 C 148.277344 186.390625 145.070312 187.441406 145.070312 188.734375 Z M 118.59375 173.105469 C 118.59375 174.398438 121.808594 175.449219 125.765625 175.449219 C 129.734375 175.449219 132.9375 174.398438 132.9375 173.105469 C 132.9375 171.8125 129.722656 170.761719 125.765625 170.761719 C 121.808594 170.761719 118.59375 171.8125 118.59375 173.105469 Z M 272.164062 218.570312 L 101.277344 218.570312 C 94.535156 218.570312 89.070312 224.035156 89.070312 230.777344 C 89.070312 237.519531 94.535156 242.984375 101.277344 242.984375 L 272.171875 242.984375 C 278.914062 242.984375 284.378906 237.519531 284.378906 230.777344 C 284.378906 224.035156 278.914062 218.570312 272.164062 218.570312 Z M 276.839844 256.550781 C 262.394531 256.550781 248.535156 262.289062 238.316406 272.507812 L 223.109375 287.714844 L 207.910156 272.507812 C 197.691406 262.289062 183.832031 256.550781 169.382812 256.550781 L 96.597656 256.550781 C 92.492188 256.550781 89.078125 259.851562 89.070312 263.957031 C 89.003906 286.824219 107.511719 305.378906 130.359375 305.378906 L 243.078125 305.378906 C 265.925781 305.378906 284.4375 286.824219 284.371094 263.957031 C 284.359375 259.851562 280.949219 256.550781 276.839844 256.550781 Z M 276.839844 256.550781 " fill-opacity="1" fill-rule="nonzero"/></g><g clip-path="url(#79b4a17bfc)"><path fill="#ffffff" d="M 137.898438 131.214844 L 137.898438 88.535156 L 165.257812 115.894531 C 167.816406 118.457031 172.121094 117.753906 173.742188 114.515625 L 186.71875 88.535156 L 199.707031 114.515625 C 201.316406 117.753906 205.632812 118.445312 208.191406 115.894531 L 235.550781 88.535156 L 235.550781 131.214844 C 235.550781 134.609375 232.800781 137.355469 229.410156 137.355469 L 144.039062 137.355469 C 140.644531 137.367188 137.898438 134.609375 137.898438 131.214844 Z M 89.070312 215.269531 C 89.070312 178.984375 118.492188 149.566406 154.777344 149.566406 L 218.664062 149.566406 C 254.949219 149.566406 284.371094 178.984375 284.371094 215.269531 C 284.371094 219.433594 280.996094 222.800781 276.839844 222.800781 L 96.597656 222.800781 C 92.445312 222.808594 89.070312 219.433594 89.070312 215.269531 Z M 209.070312 208.875 C 209.070312 207.582031 205.855469 206.53125 201.898438 206.53125 C 197.933594 206.53125 194.726562 207.582031 194.726562 208.875 C 194.726562 210.171875 197.941406 211.21875 201.898438 211.21875 C 205.867188 211.21875 209.070312 210.171875 209.070312 208.875 Z M 235.550781 193.21875 C 235.550781 194.511719 238.765625 195.5625 242.722656 195.5625 C 246.6875 195.5625 249.894531 194.511719 249.894531 193.21875 C 249.894531 191.925781 246.6875 190.875 242.722656 190.875 C 238.757812 190.875 235.550781 191.925781 235.550781 193.21875 Z M 214.660156 172.066406 C 214.660156 173.359375 217.875 174.410156 221.832031 174.410156 C 225.796875 174.410156 229.003906 173.359375 229.003906 172.066406 C 229.003906 170.773438 225.789062 169.722656 221.832031 169.722656 C 217.875 169.714844 214.660156 170.761719 214.660156 172.066406 Z M 201.898438 186.1875 C 197.933594 186.1875 194.726562 187.238281 194.726562 188.53125 C 194.726562 189.824219 197.941406 190.875 201.898438 190.875 C 205.867188 190.875 209.070312 189.824219 209.070312 188.53125 C 209.070312 187.238281 205.867188 186.1875 201.898438 186.1875 Z M 182.78125 167.371094 C 182.78125 168.664062 185.988281 169.714844 189.953125 169.714844 C 193.921875 169.714844 197.128906 168.664062 197.128906 167.371094 C 197.128906 166.074219 193.910156 165.027344 189.953125 165.027344 C 185.996094 165.027344 182.78125 166.074219 182.78125 167.371094 Z M 166.589844 183.84375 C 162.625 183.84375 159.417969 184.894531 159.417969 186.1875 C 159.417969 187.480469 162.632812 188.53125 166.589844 188.53125 C 170.554688 188.53125 173.761719 187.480469 173.761719 186.1875 C 173.761719 184.894531 170.554688 183.84375 166.589844 183.84375 Z M 148.476562 172.066406 C 148.476562 173.359375 151.691406 174.410156 155.648438 174.410156 C 159.613281 174.410156 162.820312 173.359375 162.820312 172.066406 C 162.820312 170.773438 159.605469 169.722656 155.648438 169.722656 C 151.691406 169.714844 148.476562 170.761719 148.476562 172.066406 Z M 145.070312 206.53125 C 145.070312 207.828125 148.289062 208.875 152.246094 208.875 C 156.210938 208.875 159.417969 207.828125 159.417969 206.53125 C 159.417969 205.238281 156.210938 204.1875 152.246094 204.1875 C 148.277344 204.1875 145.070312 205.238281 145.070312 206.53125 Z M 118.59375 190.902344 C 118.59375 192.195312 121.808594 193.246094 125.765625 193.246094 C 129.734375 193.246094 132.9375 192.195312 132.9375 190.902344 C 132.9375 189.609375 129.722656 188.558594 125.765625 188.558594 C 121.808594 188.558594 118.59375 189.609375 118.59375 190.902344 Z M 272.164062 236.367188 L 101.277344 236.367188 C 94.535156 236.367188 89.070312 241.832031 89.070312 248.574219 C 89.070312 255.316406 94.535156 260.78125 101.277344 260.78125 L 272.171875 260.78125 C 278.914062 260.78125 284.378906 255.316406 284.378906 248.574219 C 284.378906 241.832031 278.914062 236.367188 272.164062 236.367188 Z M 276.839844 274.347656 C 262.394531 274.347656 248.535156 280.085938 238.316406 290.304688 L 223.109375 305.515625 L 207.910156 290.304688 C 197.691406 280.085938 183.832031 274.347656 169.382812 274.347656 L 96.597656 274.347656 C 92.492188 274.347656 89.078125 277.648438 89.070312 281.753906 C 89.003906 304.625 107.511719 323.179688 130.359375 323.179688 L 243.078125 323.179688 C 265.925781 323.179688 284.4375 304.625 284.371094 281.753906 C 284.359375 277.648438 280.949219 274.347656 276.839844 274.347656 Z M 276.839844 274.347656 " fill-opacity="1" fill-rule="nonzero"/></g></svg>