<svg xmlns="http://www.w3.org/2000/svg" xmlns:xlink="http://www.w3.org/1999/xlink" width="500" zoomAndPan="magnify" viewBox="0 0 375 374.999991" height="500" preserveAspectRatio="xMidYMid meet" version="1.0"><defs><clipPath id="3d6ad0fd56"><path d="M 9.980469 9.980469 L 363.980469 9.980469 L 363.980469 363.980469 L 9.980469 363.980469 Z M 9.980469 9.980469 " clip-rule="nonzero"/></clipPath><clipPath id="0c85fe7915"><path d="M 186.980469 9.980469 C 89.226562 9.980469 9.980469 89.226562 9.980469 186.980469 C 9.980469 284.734375 89.226562 363.980469 186.980469 363.980469 C 284.734375 363.980469 363.980469 284.734375 363.980469 186.980469 C 363.980469 89.226562 284.734375 9.980469 186.980469 9.980469 Z M 186.980469 9.980469 " clip-rule="nonzero"/></clipPath><clipPath id="498abb9713"><path d="M 133.949219 75 L 240.449219 75 L 240.449219 299.667969 L 133.949219 299.667969 Z M 133.949219 75 " clip-rule="nonzero"/></clipPath></defs><g clip-path="url(#3d6ad0fd56)"><g clip-path="url(#0c85fe7915)"><path stroke-linecap="butt" transform="matrix(0.749702, 0, 0, 0.749702, 9.979121, 9.979117)" fill="none" stroke-linejoin="miter" d="M 236.095548 0.00180366 C 105.70523 0.00180366 0.00179765 105.705236 0.00179765 236.095554 C 0.00179765 366.485872 105.70523 472.189304 236.095548 472.189304 C 366.485866 472.189304 472.189298 366.485872 472.189298 236.095554 C 472.189298 105.705236 366.485866 0.00180366 236.095548 0.00180366 Z M 236.095548 0.00180366 " stroke="#ffffff" stroke-width="8" stroke-opacity="1" stroke-miterlimit="4"/></g></g><g clip-path="url(#498abb9713)"><path fill="#ffffff" d="M 215.878906 111.988281 L 240.449219 111.988281 L 240.449219 75.011719 L 209.078125 75.011719 L 209.078125 75.15625 C 167.828125 76.664062 159.324219 99.726562 158.613281 124.109375 L 158.519531 124.109375 L 158.519531 149.765625 L 133.949219 149.765625 L 133.949219 186.789062 L 158.519531 186.789062 L 158.519531 299.320312 L 202.605469 299.320312 L 202.605469 186.789062 L 234.214844 186.789062 L 240.449219 149.765625 L 202.605469 149.765625 L 202.605469 126.796875 C 202.605469 118.640625 208.085938 111.988281 215.878906 111.988281 Z M 215.878906 111.988281 " fill-opacity="1" fill-rule="nonzero"/></g></svg>